<?xml version="1.0" standalone="no"?>
<!DOCTYPE svg PUBLIC "-//W3C//DTD SVG 1.1//EN" "http://www.w3.org/Graphics/SVG/1.1/DTD/svg11.dtd" >
<svg xmlns="http://www.w3.org/2000/svg">
<metadata></metadata>
<defs>
<font id="nimbus_sans_novus_cond_dbold" horiz-adv-x="956" >
<font-face units-per-em="2048" ascent="1366" descent="-682" />
<missing-glyph horiz-adv-x="493" />
<glyph horiz-adv-x="2048" />
<glyph horiz-adv-x="2048" />
<glyph unicode="&#xd;" horiz-adv-x="682" />
<glyph unicode=" "  horiz-adv-x="493" />
<glyph unicode="&#x09;" horiz-adv-x="493" />
<glyph unicode="&#xa0;" horiz-adv-x="493" />
<glyph unicode="!" horiz-adv-x="448" d="M92 924v442h266v-442l-34 -545h-195zM94 0v250h262v-250h-262z" />
<glyph unicode="&#x22;" horiz-adv-x="747" d="M68 1366h239l-49 -549h-141zM438 1366h240l-49 -549h-142z" />
<glyph unicode="#" d="M47 440l16 150h170l19 188h-170l16 150h170l31 297h154l-33 -297h168l30 297h154l-31 -297h168l-14 -150h-170l-20 -188h169l-16 -150h-168l-35 -325h-153l35 325h-168l-33 -325h-154l35 325h-170zM385 590h168l18 188h-165z" />
<glyph unicode="$" d="M29 414h256q2 -135 28.5 -188.5t98.5 -61.5v420q-205 72 -283 156.5t-78 236.5q0 281 242 360q66 20 119 23v188h120v-188q156 -8 254.5 -103.5t98.5 -240.5v-31h-246q2 82 -26.5 131t-80.5 53v-358q20 -8 117 -47q141 -55 205 -146.5t64 -238.5q0 -309 -263 -383 q-63 -16 -123 -21v-206h-120v206q-207 18 -296 120t-87 319zM317 1018q0 -123 95 -160v307q-95 -16 -95 -147zM532 168q109 23 109 184q0 145 -109 185v-369z" />
<glyph unicode="%" horiz-adv-x="1374" d="M47 1018q0 201 62.5 283.5t214.5 82.5q154 0 215 -80.5t61 -285.5t-63.5 -286t-221.5 -81q-150 0 -209 82t-59 285zM242 1010q0 -133 16 -178.5t65.5 -45.5t66 46.5t16.5 185.5t-16.5 185t-66 46t-65.5 -48t-16 -191zM299 -18l604 1400h170l-602 -1400h-172zM772 348 q0 201 62.5 283t216 82t215 -81t61.5 -286q0 -203 -63.5 -283.5t-223.5 -80.5q-147 0 -207.5 81.5t-60.5 284.5zM967 340q0 -131 17 -177t65 -46q51 0 67.5 46t16.5 185q0 137 -16.5 183.5t-66 46.5t-66.5 -49.5t-17 -188.5z" />
<glyph unicode="&#x26;" horiz-adv-x="1148" d="M39 356q0 119 63.5 215.5t204.5 192.5q-84 117 -111.5 179.5t-27.5 129.5q0 133 94 214t252 81q160 0 252 -77t92 -210q0 -98 -55 -181t-180 -167l202 -282q20 25 36 88t13 116h236q2 -98 -40 -219t-99 -188l180 -248h-291l-74 104q-135 -129 -340 -129q-184 0 -286 95 q-55 49 -88 126.5t-33 159.5zM297 379q0 -82 56.5 -137.5t138.5 -55.5q98 0 178 88l-232 326q-141 -102 -141 -221zM397 1092q0 -68 103 -201q131 111 131 196q0 51 -32 82t-85 31t-85 -29.5t-32 -78.5z" />
<glyph unicode="'" horiz-adv-x="376" d="M68 1366h239l-49 -549h-141z" />
<glyph unicode="(" horiz-adv-x="589" d="M55 510q0 438 277 856h200q-219 -385 -219 -852q0 -242 52.5 -445.5t166.5 -410.5h-200q-277 412 -277 852z" />
<glyph unicode=")" horiz-adv-x="589" d="M59 -342q219 387 220 852q0 244 -52.5 446.5t-167.5 409.5h199q279 -410 279 -852q0 -436 -279 -856h-199z" />
<glyph unicode="*" d="M125 1094l51 145l223 -80v244h156v-244l223 80l51 -145l-221 -78l144 -195l-125 -94l-150 201l-149 -201l-125 94l143 195z" />
<glyph unicode="+" d="M55 575v189h328v328h188v-328h328v-189h-328v-327h-188v327h-328z" />
<glyph unicode="," horiz-adv-x="387" d="M63 0v301h259v-190q0 -137 -9.5 -197.5t-38.5 -114.5q-53 -98 -211 -118v131q59 14 82 54t23 134h-105z" />
<glyph unicode="-" horiz-adv-x="542" d="M0 438v228h543v-228h-543z" />
<glyph unicode="." horiz-adv-x="387" d="M63 0v301h261v-301h-261z" />
<glyph unicode="/" horiz-adv-x="808" d="M-39 -342l565 1708h211l-565 -1708h-211z" />
<glyph unicode="0" d="M51 659q0 381 80 525q106 180 350 180q242 0 340 -168q82 -137 82 -500q0 -315 -47 -469q-82 -256 -397 -256q-262 0 -350 222q-58 138 -58 466zM326 633q0 -293 28.5 -386t118.5 -93q96 0 125 99t29 427q0 305 -29 401.5t-121 96.5q-104 0 -135 -148q-16 -80 -16 -397z " />
<glyph unicode="1" d="M115 963v174q309 -6 346 217h192v-1354h-268v963h-270z" />
<glyph unicode="2" d="M53 0q-2 170 70 315q49 92 100 151.5t240 235.5q86 82 114.5 137.5t28.5 141.5q0 197 -141 197q-80 0 -114 -59.5t-34 -200.5h-260q0 195 62 290q100 156 352 156q408 0 408 -385q0 -184 -103 -309q-59 -70 -219 -215q-152 -133 -182 -242h510v-213h-832z" />
<glyph unicode="3" d="M49 393h264q4 -125 40 -180t112 -55q152 0 151 221q0 141 -59 194q-39 39 -166 39h-45v179h25q129 0 168 38q51 51 51 179q0 172 -131 172q-139 0 -140 -199v-14h-251q2 397 403 397q190 0 288.5 -89t98.5 -263q0 -119 -54 -199t-149 -100q240 -37 240 -320 q0 -195 -100 -303q-106 -119 -336 -119q-408 0 -410 422z" />
<glyph unicode="4" d="M41 287v223l453 844h286v-856h138v-211h-138v-287h-256v287h-483zM252 498h274v512z" />
<glyph unicode="5" d="M53 381h262q0 -225 146 -225q92 0 125 98q29 74 28 199q0 266 -155 266q-115 0 -140 -119l-245 6l49 731h708v-213h-501l-17 -192q-10 -104 -18 -135q70 117 244 116q348 0 348 -458q0 -246 -105.5 -365t-322.5 -119q-207 0 -306.5 100.5t-99.5 309.5z" />
<glyph unicode="6" d="M51 625q0 233 17.5 355t64.5 202q106 182 367 182q369 0 381 -342h-265q-4 158 -129 158q-90 0 -123.5 -87t-39.5 -339q49 70 107 100.5t147 30.5q336 0 335 -424q0 -248 -106.5 -369t-323.5 -121q-240 0 -342 158q-90 138 -90 496zM336 449q0 -291 149.5 -291t149.5 268 q0 135 -36 195.5t-118 60.5q-145 0 -145 -233z" />
<glyph unicode="7" d="M57 1104v233h836v-209q-158 -227 -265.5 -533t-127.5 -595h-289q29 291 145.5 595t278.5 509h-578z" />
<glyph unicode="8" d="M47 379q0 295 229 346q-43 8 -94 49q-100 82 -100 238q0 170 101.5 261t291.5 91q397 0 397 -346q0 -117 -52 -196t-140 -97q111 -23 170 -111t59 -231q0 -197 -108 -309q-106 -102 -324 -103q-430 0 -430 408zM324 395q0 -246 155.5 -245.5t155.5 243.5 q0 233 -155.5 233t-155.5 -231zM346 993q0 -188 131 -188t131 190q0 184 -129 185q-133 -1 -133 -187z" />
<glyph unicode="9" d="M45 883q0 481 432 481q246 0 346 -160q82 -131 82 -499q0 -223 -17.5 -343t-62.5 -200q-109 -190 -368 -191q-373 0 -379 342h262q2 -158 129 -157q111 0 137 125q25 127 25 268v37q-68 -133 -242 -133q-344 0 -344 430zM322 905q0 -131 36.5 -192.5t116.5 -61.5 q145 0 146 234q0 152 -36 222.5t-112 70.5q-151 -1 -151 -273z" />
<glyph unicode=":" horiz-adv-x="387" d="M63 0v301h261v-301h-261zM63 729v301h261v-301h-261z" />
<glyph unicode=";" horiz-adv-x="387" d="M63 0v301h259v-190q0 -137 -9.5 -197.5t-38.5 -114.5q-53 -98 -211 -118v131q59 14 82 54t23 134h-105zM63 729v301h261v-301h-261z" />
<glyph unicode="&#x3c;" horiz-adv-x="1024" d="M68 567v246l886 463v-293l-575 -293l575 -295v-291z" />
<glyph unicode="=" d="M55 418v188h844v-188h-844zM55 735v189h844v-189h-844z" />
<glyph unicode="&#x3e;" horiz-adv-x="1024" d="M70 104v293l575 293l-575 295v291l886 -463v-246z" />
<glyph unicode="?" horiz-adv-x="839" d="M18 944v21q0 205 99.5 311t292.5 106q182 0 284.5 -97t102.5 -269q0 -125 -52 -215q-23 -41 -135 -166q-63 -72 -79.5 -115t-18.5 -141h-242q-2 158 21.5 226.5t114.5 164.5q82 88 107.5 139.5t25.5 129t-35 119.5t-98 42q-74 0 -107 -60.5t-31 -195.5h-250zM264 0v250 h262v-250h-262z" />
<glyph unicode="@" horiz-adv-x="1443" d="M86 668q0 293 198.5 495.5t485.5 202.5q246 0 415 -162t169 -397q0 -195 -120 -347.5t-271 -152.5q-98 0 -150 101q-84 -92 -178 -93q-102 0 -165.5 81t-63.5 212q0 172 89 296t212 124q109 0 170 -104l20 80h150l-95 -447q-12 -66 -12 -88q0 -68 53 -68q68 0 148 93 q113 131 112 307q0 201 -140 337t-347 136q-244 0 -410 -174t-166 -428q0 -256 168 -431t412 -175q137 0 258 67.5t199 188.5h104q-53 -117 -157 -199q-188 -150 -408 -150q-283 0 -481.5 203t-198.5 492zM571 543q-4 -59 23 -96t72 -37q41 0 70.5 37.5t56.5 125.5 q47 162 47 234q0 51 -23.5 83t-64.5 32q-70 0 -117 -113q-56 -135 -64 -266z" />
<glyph unicode="A" horiz-adv-x="1056" d="M-2 0l360 1366h353l350 -1366h-291l-61 291h-359l-65 -291h-287zM393 510h269l-132 627z" />
<glyph unicode="B" horiz-adv-x="1007" d="M80 0v1366h401q190 0 273 -37q84 -39 130 -119t46 -188q0 -244 -213 -301q254 -47 254 -330q0 -244 -178 -342q-86 -49 -263 -49h-450zM354 203h74q125 0 162 18q96 49 96 191q0 147 -111 192q-33 12 -159 14h-62v-415zM354 805h62q121 0 164 22q76 45 75 158 q0 133 -98 166q-37 12 -143 12h-60v-358z" />
<glyph unicode="C" horiz-adv-x="985" d="M49 678q0 221 21.5 343t72.5 200q117 172 365 172q346 0 412 -267q18 -84 18 -215h-268v25v10q-2 131 -40 190.5t-120 59.5q-104 0 -141 -106.5t-37 -409.5q0 -301 37 -407.5t141 -106.5q92 0 131 80t39 268h270v-29q0 -262 -109.5 -388t-338.5 -126q-287 0 -387 217 q-66 140 -66 490z" />
<glyph unicode="D" horiz-adv-x="1034" d="M80 0v1366h371q147 0 234 -23.5t149 -78.5q82 -76 116.5 -201t34.5 -342q0 -256 -39 -418q-20 -90 -75.5 -159.5t-129.5 -102.5q-92 -41 -239 -41h-422zM356 203h84q139 0 187 57q75 85 75 445v10q0 180 -20 272t-70 133q-49 43 -194 43h-62v-960z" />
<glyph unicode="E" horiz-adv-x="880" d="M80 0v1366h764v-225h-490v-324h459v-221h-459v-371h508v-225h-782z" />
<glyph unicode="F" horiz-adv-x="835" d="M80 0v1366h762v-225h-484v-326h453v-221h-453v-594h-278z" />
<glyph unicode="G" horiz-adv-x="1019" d="M49 664q0 231 22.5 356t75.5 207q115 166 365 166q215 0 319.5 -106.5t104.5 -328.5h-266q-2 125 -41 182.5t-117 57.5q-117 0 -150 -119q-30 -111 -30 -391v-18q0 -291 39 -398.5t143 -107.5q53 0 95 32.5t59 86.5q24 88 24 237v12h-188v193h446v-725h-196l-2 63 q-2 20 -4 84q-70 -176 -293 -176q-225 0 -318 164q-88 152 -88 529z" />
<glyph unicode="H" horiz-adv-x="1034" d="M80 0v1366h278v-528h320v528h276v-1366h-276v604h-320v-604h-278z" />
<glyph unicode="I" horiz-adv-x="440" d="M82 0v1366h280v-1366h-280z" />
<glyph unicode="J" horiz-adv-x="843" d="M0 422h256q0 -150 24.5 -203t94.5 -53q100 0 119 119q4 53 4 161v920h276v-926q0 -211 -47 -297q-92 -172 -352 -172t-340 179q-35 77 -35 272z" />
<glyph unicode="K" horiz-adv-x="1009" d="M80 0v1366h272v-541l353 541h299l-379 -573l422 -793h-312l-282 555l-101 -147v-408h-272z" />
<glyph unicode="L" horiz-adv-x="841" d="M80 0v1366h276v-1139h492v-227h-768z" />
<glyph unicode="M" horiz-adv-x="1380" d="M80 0v1366h405l209 -963l199 963h407v-1366h-260v1135l-245 -1135h-213l-246 1135v-1135h-256z" />
<glyph unicode="N" horiz-adv-x="1064" d="M80 0v1366h317l328 -930v930h260v-1366h-315l-332 942v-942h-258z" />
<glyph unicode="O" horiz-adv-x="1030" d="M49 692q0 348 80 500q100 201 389 201q291 0 393 -213q70 -147 70 -486q0 -326 -57 -477q-88 -248 -412 -248q-317 0 -408 252q-55 156 -55 471zM332 694q0 -313 37 -422.5t143 -109.5t145 104.5t39 397.5q0 319 -36.5 425.5t-145.5 106.5q-106 0 -145 -104 q-37 -103 -37 -398z" />
<glyph unicode="P" horiz-adv-x="952" d="M80 0v1366h403q201 0 289 -55q164 -102 164 -353q0 -137 -56.5 -235t-158.5 -141q-88 -35 -275 -35h-92v-547h-274zM352 750h88q102 0 142 28q74 47 73 178q0 137 -80 183q-38 24 -133 24h-8h-82v-413z" />
<glyph unicode="Q" horiz-adv-x="1028" d="M49 672q0 219 21.5 340t76.5 209q113 172 371 172q276 0 383 -199q43 -82 60.5 -189.5t17.5 -302.5q0 -449 -102 -561l159 -164l-164 -147l-180 188q-80 -47 -205 -47q-262 0 -362 209q-76 160 -76 492zM332 696q0 -297 30 -409q35 -125 154 -125q74 0 111 48t52 163.5 t15 345.5q0 279 -36.5 378t-143.5 99q-109 0 -145.5 -101.5t-36.5 -398.5z" />
<glyph unicode="R" horiz-adv-x="1005" d="M80 0v1366h446q197 0 277 -51q147 -90 147 -311q0 -274 -227 -328q98 -18 141 -58t60.5 -127.5t19.5 -273.5q2 -92 11.5 -129t37.5 -88h-288q-20 37 -27.5 93.5t-11.5 215.5q-2 111 -12.5 156t-37.5 72q-39 41 -153 41h-109v-578h-274zM354 770h107q113 0 163 48t50 157 q0 102 -50.5 146t-162.5 44h-107v-395z" />
<glyph unicode="S" horiz-adv-x="952" d="M23 393v25h268q0 -113 18 -160q43 -94 152 -94q84 0 129 47t45 135q0 98 -66 152q-27 20 -58.5 34.5t-199.5 79.5q-141 57 -207.5 149.5t-66.5 231.5q0 190 112.5 294t319.5 104q211 -1 313 -99q100 -97 99 -293v-8h-265q-2 106 -37.5 154.5t-113.5 48.5q-74 0 -114 -42 t-40 -120q0 -80 40 -125t153 -88q158 -63 220 -94t99 -68q92 -92 92 -270q0 -211 -113.5 -313.5t-350.5 -102.5q-223 0 -325.5 101.5t-102.5 320.5z" />
<glyph unicode="T" horiz-adv-x="835" d="M-23 1135v231h881v-231h-301v-1135h-274v1135h-306z" />
<glyph unicode="U" horiz-adv-x="1011" d="M70 432v51v883h276v-928q0 -127 14 -176q35 -98 146 -98q121 0 149 117q12 39 13 157v928h276v-887q0 -217 -51 -313q-102 -197 -395 -197q-231 0 -338 127q-90 109 -90 336z" />
<glyph unicode="V" horiz-adv-x="976" d="M-2 1366h295l201 -1079l198 1079h289l-317 -1366h-351z" />
<glyph unicode="W" horiz-adv-x="1439" d="M4 1366h272l150 -1034l160 1034h270l166 -1034l147 1034h267l-252 -1366h-310l-155 1006l-154 -1006h-309z" />
<glyph unicode="X" horiz-adv-x="974" d="M-16 0l342 696l-318 670h309l175 -440l174 440h301l-320 -672l344 -694h-311l-197 471l-196 -471h-303z" />
<glyph unicode="Y" horiz-adv-x="942" d="M-20 1366h307l190 -545l191 545h295l-355 -829v-537h-274v537z" />
<glyph unicode="Z" horiz-adv-x="872" d="M20 0v201l510 940h-477v225h789v-205l-508 -936h514v-225h-828z" />
<glyph unicode="[" horiz-adv-x="618" d="M113 -342v1708h440v-190h-197v-1328h197v-190h-440z" />
<glyph unicode="\" horiz-adv-x="808" d="M72 1366h211l565 -1708h-211z" />
<glyph unicode="]" horiz-adv-x="618" d="M66 -152h196v1328h-196v190h440v-1708h-440v190z" />
<glyph unicode="^" horiz-adv-x="1024" d="M35 721l315 651h326l315 -651h-262l-217 453l-217 -453h-260z" />
<glyph unicode="_" horiz-adv-x="1024" d="M0 -96h1024v-187h-1024v187z" />
<glyph unicode="`" horiz-adv-x="1024" d="M272 1407h267l102 -277h-176z" />
<glyph unicode="a" horiz-adv-x="864" d="M25 276q0 154 75 230q57 59 234 102q147 35 179 58.5t32 95.5q0 125 -121 125q-70 0 -100.5 -40t-30.5 -130h-238q0 158 68 233q94 106 309 107q252 0 330 -135q31 -57 31 -224v-454q0 -176 30 -244h-256q-20 61 -20 125q-76 -147 -256 -148q-129 0 -197.5 77t-68.5 222z M283 303q0 -139 110 -139q78 0 121 61q29 41 29 144v147l-33 -12q-49 -18 -51 -19q-23 -10 -58 -20q-68 -23 -93 -58.5t-25 -103.5z" />
<glyph unicode="b" horiz-adv-x="927" d="M74 0v1366h262v-448q84 137 237 137q162 0 234 -126t72 -406.5t-79 -414t-245 -133.5q-170 0 -227 148v-123h-254zM330 514q0 -193 28 -256q33 -82 111 -82t109.5 78t31.5 272q0 184 -29.5 255t-107.5 71q-90 0 -121 -96q-22 -62 -22 -242z" />
<glyph unicode="c" horiz-adv-x="872" d="M49 510q0 309 107 432q100 119 301 119q195 0 286 -94.5t91 -298.5h-250q-2 115 -31 163t-94 48q-82 0 -115 -80t-33 -279q0 -211 31 -288.5t115 -77.5q72 0 102.5 57t30.5 188h244q0 -178 -58 -270q-49 -84 -126 -120t-206 -36q-211 0 -303 125t-92 412z" />
<glyph unicode="d" horiz-adv-x="923" d="M49 512q0 274 64 395q82 147 252 148q78 0 129 -29t96 -98v438h262v-1366h-250v131q-70 -156 -242 -156q-164 0 -237.5 127t-73.5 410zM315 522q0 -199 30 -273.5t110 -74.5q78 0 109.5 75t31.5 263q0 195 -29.5 267.5t-111.5 72.5q-80 0 -110 -71t-30 -259z" />
<glyph unicode="e" horiz-adv-x="886" d="M49 516q0 289 94.5 415t311.5 126q207 0 296 -121t89 -401v-58h-525q0 -193 29 -262.5t111 -69.5q127 0 133 205h241q0 -106 -45 -207q-84 -170 -335 -170q-213 0 -306.5 126t-93.5 417zM315 635h269q-2 141 -30 195.5t-99.5 54.5t-105.5 -59.5t-34 -190.5z" />
<glyph unicode="f" horiz-adv-x="503" d="M-27 848v182h136v57q0 119 18 172.5t72 86.5q68 40 208 40h7q66 0 112 -2v-186h-32q-88 0 -105 -24q-16 -20 -16 -144h153v-182h-153v-848h-264v848h-136z" />
<glyph unicode="g" horiz-adv-x="921" d="M49 528q0 274 77 401.5t245 127.5q82 0 133 -34t98 -118v125h248v-911q0 -133 -10.5 -195.5t-38.5 -111.5q-94 -162 -365 -162q-174 0 -261 66.5t-95 207.5h244q10 -102 122 -102q147 0 148 184v150q-49 -76 -102.5 -107t-133.5 -31q-309 0 -309 510zM317 532.5 q0 -178.5 30 -248t104 -69.5q80 0 111.5 72.5t31.5 251.5q0 168 -33 241.5t-106 73.5q-76 0 -107 -71.5t-31 -250z" />
<glyph unicode="h" horiz-adv-x="915" d="M74 0v1366h262v-442q92 133 252 133q186 0 241 -152q20 -53 21 -203v-702h-264v649q0 106 -13 135q-23 66 -98 66q-88 0 -125 -80q-14 -29 -14 -106v-664h-262z" />
<glyph unicode="i" horiz-adv-x="409" d="M74 0v1030h264v-1030h-264zM74 1143v223h264v-223h-264z" />
<glyph unicode="j" horiz-adv-x="409" d="M-72 -152q18 -2 43 -2q72 0 92 50q10 23 11 147v987h264v-975q0 -141 -5 -194.5t-24 -89.5q-31 -63 -96.5 -90t-181.5 -27q-20 0 -103 4v190zM74 1143v223h264v-223h-264z" />
<glyph unicode="k" horiz-adv-x="890" d="M74 0v1366h258v-725l270 389h293l-303 -393l346 -637h-293l-221 428l-92 -123v-305h-258z" />
<glyph unicode="l" horiz-adv-x="407" d="M74 0v1366h262v-1366h-262z" />
<glyph unicode="m" horiz-adv-x="1409" d="M74 0v1030h252v-119q78 145 252 146q96 0 152 -37t89 -121q51 84 112.5 122t149.5 38q170 0 230 -119q32 -57 32 -202v-9v-729h-266v664q0 109 -14 135q-27 51 -90 51q-90 0 -123 -86q-12 -29 -12 -90v-674h-263v666q-2 92 -6 110q-20 74 -100 74q-90 0 -123 -86 q-10 -35 -10 -109v-655h-262z" />
<glyph unicode="n" horiz-adv-x="917" d="M74 0v1030h252v-117q63 82 120.5 114t143.5 32q182 0 244 -148q20 -53 20 -198v-713h-266v653q0 102 -10 133q-23 63 -101 64q-139 0 -139 -172v-678h-264z" />
<glyph unicode="o" horiz-adv-x="911" d="M49 520q0 283 98.5 410t315.5 127t308 -123t91 -414q0 -293 -97 -420t-321 -127q-215 0 -305 125t-90 422zM313 514q0 -205 31 -283.5t111 -78.5t111.5 81.5t31.5 286.5t-29.5 281t-109.5 76q-82 0 -114 -79t-32 -284z" />
<glyph unicode="p" horiz-adv-x="925" d="M74 -338v1366h252v-127q45 86 98 120t141 34q164 0 238 -124t74 -396q0 -283 -68 -410q-82 -150 -252 -150q-78 0 -122 26t-97 103v-442h-264zM330 532q0 -207 28 -276q33 -80 111 -80t109.5 76t31.5 260q0 193 -29.5 267.5t-105.5 74.5q-88 0 -123 -98q-22 -62 -22 -224 z" />
<glyph unicode="q" horiz-adv-x="925" d="M49 512q0 299 78 418q82 125 238 125q86 0 135 -33t98 -121v127h254v-1366h-260v447q-63 -135 -232 -136q-164 0 -237.5 128t-73.5 411zM315 508q0 -190 30 -262t108 -72q80 0 111.5 77t31.5 271q0 184 -32 258t-111 74q-78 0 -108 -74.5t-30 -271.5z" />
<glyph unicode="r" horiz-adv-x="604" d="M74 0v1030h254v-151q51 92 107.5 132t137.5 40q25 0 43 -4v-250q-35 8 -67 8q-131 0 -187 -84q-28 -40 -28 -123v-6v-592h-260z" />
<glyph unicode="s" horiz-adv-x="825" d="M29 309v21h237q0 -100 31 -142.5t104 -42.5q63 0 98.5 33t35.5 90q0 66 -48 101q-29 20 -192 77q-141 49 -198.5 118t-57.5 190q0 145 95 224t276 79q248 0 321 -146q31 -55 31 -178h-236q0 86 -25.5 119t-94.5 33q-57 0 -89 -28t-32 -79q0 -49 29.5 -77.5t107.5 -53.5 q178 -55 246 -98q118 -69 118 -243q0 -161 -101 -247t-290 -86q-190 0 -278 81t-88 255z" />
<glyph unicode="t" horiz-adv-x="524" d="M-29 848v182h133v293h263v-293h157v-182h-157v-549q0 -74 20.5 -96.5t85.5 -22.5q27 0 51 2v-182q-78 -12 -153 -12q-190 0 -238 82q-29 47 -29 192v586h-133z" />
<glyph unicode="u" horiz-adv-x="917" d="M66 309v721h266v-668q0 -104 23.5 -143t84.5 -39q92 0 127 82q12 33 13 109v659h264v-1030h-252v121q-59 -82 -116.5 -115t-143.5 -33q-186 0 -244 154q-22 67 -22 182z" />
<glyph unicode="v" horiz-adv-x="800" d="M-16 1030h278l148 -790l139 790h270l-260 -1030h-309z" />
<glyph unicode="w" horiz-adv-x="1300" d="M-10 1030h266l121 -792l135 792h287l135 -792l121 792h256l-221 -1030h-302l-135 770l-133 -770h-307z" />
<glyph unicode="x" horiz-adv-x="823" d="M-16 0l278 535l-266 495h274l142 -323l143 323h272l-262 -495l277 -535h-273l-155 354l-156 -354h-274z" />
<glyph unicode="y" horiz-adv-x="800" d="M-16 1030h280l152 -743l137 743h268l-258 -985q-63 -244 -133 -316.5t-242 -72.5q-49 0 -125 6v191q41 -4 74 -5q63 0 95 32t49 110z" />
<glyph unicode="z" horiz-adv-x="739" d="M6 0v203l410 616h-389v209h702v-203l-412 -614h418v-211h-729z" />
<glyph unicode="{" horiz-adv-x="673" d="M63 397v234q115 29 115 172v278q0 147 66 213q45 45 103.5 57.5t213.5 14.5h62v-197h-27q-100 0 -137 -43q-37 -47 -37 -194v-178q0 -98 -25.5 -151.5t-91.5 -94.5q66 -41 91.5 -95.5t25.5 -154.5v-184q4 -104 10 -135t33 -58q35 -35 131 -35h27v-198q-29 2 -64 2 q-164 0 -223.5 15.5t-102.5 70.5q-55 68 -55 211v264q0 86 -27 129t-88 57z" />
<glyph unicode="|" horiz-adv-x="1024" d="M365 -342v1708h294v-1708h-294z" />
<glyph unicode="}" horiz-adv-x="673" d="M53 -154h27q98 0 135 43q37 47 37 195v178q0 98 25.5 151.5t91.5 94.5q-66 41 -91.5 95t-25.5 155v184q0 150 -43 193q-31 35 -129 34h-27v197h64q160 0 220 -16.5t103 -69.5q55 -68 56 -211v-264q0 -86 26.5 -129t89.5 -58v-233q-61 -16 -88.5 -56t-27.5 -116v-279 q0 -147 -66 -213q-45 -45 -103.5 -58t-211.5 -13q-33 0 -62 -2v198z" />
<glyph unicode="~" horiz-adv-x="1366" d="M190 1255q111 274 304 275q70 0 231 -70q123 -53 160 -53q82 0 151 129l144 -121q-61 -145 -134 -207.5t-186 -62.5q-41 0 -79 12t-148 62q-109 45 -152 45q-78 0 -147 -127z" />
<glyph unicode="&#xa1;" horiz-adv-x="448" d="M92 0v442l35 543h195l36 -543v-442h-266zM92 1116v250h262v-250h-262z" />
<glyph unicode="&#xa2;" d="M86 698q0 219 53.5 339t171.5 171q70 31 123 33v178h121v-178q319 -31 322 -369h-234q-2 182 -88 201v-751q92 14 94 231h228q-4 -190 -80 -284.5t-242 -116.5v-205h-121v205q-76 6 -158 51q-190 92 -190 495zM334 698q0 -195 21.5 -276.5t78.5 -97.5v747 q-33 -10 -59 -51q-41 -64 -41 -322z" />
<glyph unicode="&#xa3;" d="M33 152q227 164 227 333q0 45 -22 97h-197v159h129q-51 98 -68.5 154.5t-17.5 122.5q0 162 110.5 254t305.5 92q205 0 310 -100.5t103 -294.5h-245q-2 215 -160 215q-72 0 -114 -42t-42 -116q0 -84 62 -199q37 -74 41 -86h323v-159h-268q12 -45 12 -78q0 -88 -50 -164 t-163 -160q78 35 127 35q43 0 115 -27q66 -25 108 -24q88 0 199 80l84 -181q-129 -92 -285 -92q-72 0 -176 35q-119 37 -178 37q-82 0 -190 -61z" />
<glyph unicode="&#xa4;" horiz-adv-x="1337" d="M76 1221l143 145l127 -127q150 102 324 102q176 0 321 -100l125 125l144 -145l-125 -121q104 -150 104 -326q0 -172 -98 -317l123 -125l-142 -146l-125 125q-152 -106 -327 -106q-174 0 -326 104l-125 -123l-141 146l123 123q-98 150 -99 319q0 174 99 320zM336 772 q0 -137 98 -235.5t236 -98.5q139 0 236.5 98.5t97.5 237.5q0 137 -97.5 235.5t-232.5 98.5q-141 0 -239.5 -97.5t-98.5 -238.5z" />
<glyph unicode="&#xa5;" d="M10 1337h291l121 -338q51 -143 61 -225q14 78 62 236l119 327h282l-223 -538h178v-158h-242l-49 -115v-65h250v-158h-250v-303h-266v303h-248v158h248v65l-47 115h-242v158h176z" />
<glyph unicode="&#xa6;" horiz-adv-x="1024" d="M365 313h294v-655h-294v655zM365 649v717h294v-717h-294z" />
<glyph unicode="&#xa7;" d="M45 600q0 90 39 153.5t131 127.5q-117 78 -117 217q0 150 101.5 231.5t285.5 81.5q180 0 273.5 -80t91.5 -233h-242q-4 133 -131 133q-55 0 -88 -28.5t-33 -80.5q0 -53 54 -92q35 -25 260 -131q127 -59 184 -135t57 -186q0 -168 -147 -277q106 -98 106 -246 q0 -158 -101 -241.5t-288 -83.5q-201 0 -296 88t-95 272h254q0 -178 131 -178q57 0 91 36t34 97q0 63 -39 96q-29 25 -65.5 45.5t-233.5 118.5q-217 107 -217 295zM270 641q0 -72 62 -106l274 -142l8 10q45 41 59.5 67t14.5 67q0 88 -129 153l-188 98q-59 -47 -80 -76.5 t-21 -70.5z" />
<glyph unicode="&#xa8;" horiz-adv-x="1024" d="M244 1167v232h215v-232h-215zM567 1167v232h215v-232h-215z" />
<glyph unicode="&#xa9;" horiz-adv-x="1460" d="M20 688q0 293 211 499t510 206q285 0 492 -210t207 -499q0 -295 -208 -503t-501 -208q-297 0 -504 208t-207 507zM135 688q0 -250 174 -425t422 -175q246 0 420 174t174 422q0 244 -173 419t-413 175q-272 0 -450 -197q-154 -170 -154 -393zM461 682q0 227 55 307 q70 98 221 98q207 0 246 -153q10 -49 10 -129h-170q0 90 -18.5 125t-67.5 35q-57 0 -76.5 -58.5t-19.5 -224.5q0 -164 19.5 -222.5t76.5 -58.5q51 0 71.5 44t20.5 151h172v-21q0 -152 -65.5 -224t-202.5 -72q-172 0 -233 124q-39 80 -39 279z" />
<glyph unicode="&#xaa;" horiz-adv-x="600" d="M37 715q0 90 42 132t159 68q94 20 112.5 33t18.5 53q0 68 -72 68q-43 0 -60.5 -22.5t-17.5 -75.5h-162q0 111 58.5 161t189.5 50q156 0 209 -76q25 -39 25 -141v-269q0 -106 22 -149h-176q-6 25 -12 61q-57 -78 -160 -78q-176 1 -176 185zM213 731q0 -78 66 -78 q49 0 71 35q18 25 19 82v39q0 6 2 45q-25 -12 -84 -33q-41 -12 -57.5 -31.5t-16.5 -58.5z" />
<glyph unicode="&#xab;" horiz-adv-x="659" d="M33 412v252l276 237v-227l-147 -133l147 -140v-231zM338 410v252l272 235v-225l-143 -133l143 -133v-234z" />
<glyph unicode="&#xac;" horiz-adv-x="1024" d="M68 336v258h886v-594h-286v336h-600z" />
<glyph unicode="&#xad;" horiz-adv-x="542" d="M0 438v228h543v-228h-543z" />
<glyph unicode="&#xae;" horiz-adv-x="1460" d="M20 688q0 293 211 499t510 206q285 0 492 -210t207 -499q0 -295 -208 -503t-501 -208q-297 0 -504 208t-207 507zM135 688q0 -250 174 -425t422 -175q246 0 420 174t174 422q0 244 -173 419t-413 175q-272 0 -450 -197q-154 -170 -154 -393zM481 293v778h269 q119 0 163 -29q90 -55 91 -180q0 -72 -25 -112.5t-84 -67.5q66 -23 85 -69t21 -191q2 -55 7.5 -74.5t25.5 -54.5h-184q-23 35 -27 180q-4 96 -22.5 120.5t-89.5 24.5h-56v-325h-174zM655 739h56q63 0 90.5 24.5t27.5 82.5q0 53 -27.5 75.5t-90.5 22.5h-56v-205z" />
<glyph unicode="&#xaf;" horiz-adv-x="1024" d="M231 1208v146h560v-146h-560z" />
<glyph unicode="&#xb0;" horiz-adv-x="747" d="M82 1065q0 123 86 209t207 86t206 -86t85 -211q0 -119 -86 -204t-205 -85q-121 0 -207 85t-86 206zM205 1065q0 -72 49 -122t118.5 -50t120 50t50.5 120q0 74 -50.5 126t-119.5 52q-68 0 -118 -52t-50 -124z" />
<glyph unicode="&#xb1;" d="M55 10v189h844v-189h-844zM55 575v189h328v328h188v-328h328v-189h-328v-305h-188v305h-328z" />
<glyph unicode="&#xb2;" horiz-adv-x="630" d="M47 535q2 129 49 208.5t203 217.5q51 45 68.5 77.5t17.5 81.5q0 109 -78 109q-47 0 -66.5 -34t-17.5 -120h-174q0 127 39 182q63 96 225 97q254 0 254 -236q0 -115 -63 -186q-33 -37 -135 -127q-84 -72 -109 -131h311v-139h-524z" />
<glyph unicode="&#xb3;" horiz-adv-x="630" d="M45 780h176q2 -76 21.5 -107.5t64.5 -31.5q88 0 88 123q0 92 -45 119q-23 12 -106 12h-17v121q10 -2 21 -2q78 0 104.5 24.5t26.5 96.5q0 96 -74 96q-43 0 -61.5 -28.5t-18.5 -98.5h-170q0 250 256 250q121 0 183.5 -55.5t62.5 -161.5q0 -119 -104 -174q127 -41 127 -189 q0 -256 -277 -256q-258 0 -258 262z" />
<glyph unicode="&#xb4;" horiz-adv-x="1024" d="M383 1133l104 276h265l-195 -276h-174z" />
<glyph unicode="&#xb5;" horiz-adv-x="923" d="M74 -342v1372h262v-668q0 -104 23.5 -143t86.5 -39q94 0 132 82q12 33 12 109v659h262v-1030h-248v127q-92 -129 -282 -125l14 -344h-262z" />
<glyph unicode="&#xb6;" d="M20 1006q0 213 152 307q90 53 264 53h467v-127h-88v-1470h-162v1470h-127v-1470h-157v886h-27q-143 0 -232.5 97.5t-89.5 253.5z" />
<glyph unicode="&#xb7;" horiz-adv-x="387" d="M63 379v301h259v-301h-259z" />
<glyph unicode="&#xb8;" horiz-adv-x="1024" d="M295 -393l35 90q74 -27 135 -27q43 0 68.5 18.5t25.5 51.5q0 29 -24.5 47t-61.5 18q-35 0 -61 -12l-43 37l102 170h104l-71 -113q33 6 57 7q74 0 121 -41t47 -105q0 -80 -64.5 -129t-170.5 -49q-97 0 -199 37z" />
<glyph unicode="&#xb9;" horiz-adv-x="630" d="M84 1104v117q102 -2 152.5 27.5t60.5 99.5h131v-813h-178v569h-166z" />
<glyph unicode="&#xba;" horiz-adv-x="591" d="M31 860q0 170 63.5 246t204.5 76t201.5 -75t60.5 -249q0 -176 -63.5 -252t-208.5 -76q-139 0 -198.5 76t-59.5 254zM213 858q0 -119 17.5 -164t64.5 -45t65.5 47t18.5 162q0 119 -16.5 162t-63.5 43q-49 0 -67.5 -45t-18.5 -160z" />
<glyph unicode="&#xbb;" horiz-adv-x="659" d="M51 174v223l144 135l-144 134v231l273 -238v-251zM352 170v227l148 133l-148 138v233l277 -242v-253z" />
<glyph unicode="&#xbc;" horiz-adv-x="1427" d="M29 1104v117q102 -2 152 27.5t61 99.5h131v-813h-178v569h-166zM293 0l575 1337h158l-575 -1337h-158zM782 170v139l281 504h188v-506h84v-137h-84v-170h-172v170h-297zM930 307h151v268z" />
<glyph unicode="&#xbd;" horiz-adv-x="1427" d="M43 1104v117q102 -2 152.5 27.5t60.5 99.5h131v-813h-178v569h-166zM252 0l575 1337h158l-575 -1337h-158zM805 0q2 131 48 209t204 217q51 45 68.5 78t17.5 82q0 109 -78 108q-47 0 -66.5 -33.5t-17.5 -119.5h-174q0 123 39 182q63 94 225 94q254 0 254 -233 q0 -115 -63 -187q-29 -33 -136 -127q-86 -74 -108 -131h311v-139h-524z" />
<glyph unicode="&#xbe;" horiz-adv-x="1427" d="M45 780h176q2 -76 21.5 -107.5t64.5 -31.5q88 0 88 123q0 92 -45 119q-23 12 -106 12h-17v121q10 -2 21 -2q78 0 104.5 24.5t26.5 96.5q0 96 -74 96q-43 0 -61.5 -28.5t-18.5 -98.5h-170q0 250 256 250q121 0 183.5 -55.5t62.5 -161.5q0 -119 -104 -174q127 -41 127 -189 q0 -256 -277 -256q-258 0 -258 262zM401 0l576 1337h158l-576 -1337h-158zM836 170v139l280 504h189v-506h86v-137h-86v-170h-172v170h-297zM983 307h152v268z" />
<glyph unicode="&#xbf;" horiz-adv-x="839" d="M43 350q0 125 51 215q27 43 135 166q63 70 80 114t19 142h243q0 -158 -23.5 -226.5t-113.5 -164.5q-82 -88 -107.5 -139t-25.5 -129t35 -120t98 -42q74 0 106.5 60.5t32.5 195.5h248q-4 -121 -15 -175t-44 -106q-100 -158 -332 -157q-182 0 -284.5 97t-102.5 269z M315 1116v250h263v-250h-263z" />
<glyph unicode="&#xc0;" horiz-adv-x="1056" d="M-2 0l360 1366h353l350 -1366h-291l-61 291h-359l-65 -291h-287zM260 1667h270l103 -248h-199zM393 510h269l-132 627z" />
<glyph unicode="&#xc1;" horiz-adv-x="1056" d="M-2 0l360 1366h353l350 -1366h-291l-61 291h-359l-65 -291h-287zM393 510h269l-132 627zM438 1419l105 248h268l-174 -248h-199z" />
<glyph unicode="&#xc2;" horiz-adv-x="1056" d="M-2 0l360 1366h353l350 -1366h-291l-61 291h-359l-65 -291h-287zM227 1413l168 262h271l165 -262h-217l-88 141l-90 -141h-209zM393 510h269l-132 627z" />
<glyph unicode="&#xc3;" horiz-adv-x="1056" d="M-2 0l360 1366h353l350 -1366h-291l-61 291h-359l-65 -291h-287zM217 1419q33 236 193 236q35 0 58.5 -6.5t115.5 -40.5q35 -14 59 -15q45 0 59 70h140q-6 -102 -58.5 -167.5t-130.5 -65.5q-43 0 -168 47q-49 16 -63 16q-51 0 -68 -74h-137zM393 510h269l-132 627z" />
<glyph unicode="&#xc4;" horiz-adv-x="1056" d="M-2 0l360 1366h353l350 -1366h-291l-61 291h-359l-65 -291h-287zM229 1419v248h240v-248h-240zM393 510h269l-132 627zM590 1419v248h239v-248h-239z" />
<glyph unicode="&#xc5;" horiz-adv-x="1056" d="M-2 0l360 1366h353l350 -1366h-291l-61 291h-359l-65 -291h-287zM311 1622q0 90 64.5 153.5t156.5 63.5q88 0 152 -64.5t64 -152.5q0 -90 -63.5 -154.5t-154.5 -64.5q-92 0 -155.5 64.5t-63.5 154.5zM393 510h269l-132 627zM424 1622q0 -45 30.5 -78t73.5 -33q45 0 76 32 t31 79q0 43 -31 76t-74 33q-45 0 -75.5 -32t-30.5 -77z" />
<glyph unicode="&#xc6;" horiz-adv-x="1390" d="M-47 0l518 1366h883v-223h-451v-326h424v-217h-424v-375h469v-225h-729v295h-305l-102 -295h-283zM410 510h233v639h-18z" />
<glyph unicode="&#xc7;" horiz-adv-x="985" d="M49 676q0 219 21.5 343t72.5 202q113 172 369 172q287 0 383 -199q43 -88 43 -283h-268q0 156 -36 220.5t-124 64.5q-102 0 -140 -107.5t-38 -404.5q0 -303 37 -410.5t141 -107.5q92 0 130 79t40 271h270q10 -528 -405 -545l-53 -84q29 6 57 7q74 0 121 -41t47 -107 q0 -78 -64.5 -127t-171.5 -49q-94 0 -198 37l34 90q72 -27 134 -27q96 0 96 70q0 29 -24.5 47t-61.5 18q-27 0 -62 -12l-43 37l84 141q-203 12 -299 166q-51 82 -71.5 200t-20.5 339z" />
<glyph unicode="&#xc8;" horiz-adv-x="880" d="M80 0v1366h764v-225h-490v-324h459v-221h-459v-371h508v-225h-782zM197 1667h270l102 -248h-198z" />
<glyph unicode="&#xc9;" horiz-adv-x="880" d="M80 0v1366h764v-225h-490v-324h459v-221h-459v-371h508v-225h-782zM319 1419l105 248h268l-172 -248h-201z" />
<glyph unicode="&#xca;" horiz-adv-x="880" d="M80 0v1366h764v-225h-490v-324h459v-221h-459v-371h508v-225h-782zM152 1413l165 262h273l164 -262h-217l-86 141l-91 -141h-208z" />
<glyph unicode="&#xcb;" horiz-adv-x="880" d="M80 0v1366h764v-225h-490v-324h459v-221h-459v-371h508v-225h-782zM152 1419v248h239v-248h-239zM512 1419v248h240v-248h-240z" />
<glyph unicode="&#xcc;" horiz-adv-x="440" d="M-41 1667h268l105 -248h-199zM82 0v1366h280v-1366h-280z" />
<glyph unicode="&#xcd;" horiz-adv-x="440" d="M82 0v1366h280v-1366h-280zM117 1419l102 248h270l-174 -248h-198z" />
<glyph unicode="&#xce;" horiz-adv-x="442" d="M-59 1413l168 262h229l164 -262h-215l-68 115l-69 -115h-209zM82 0v1366h280v-1366h-280z" />
<glyph unicode="&#xcf;" horiz-adv-x="440" d="M-55 1419v248h233v-248h-233zM80 0v1366h280v-1366h-280zM260 1419v248h234v-248h-234z" />
<glyph unicode="&#xd0;" horiz-adv-x="1060" d="M-2 641v190h108v535h416q139 0 220 -27.5t141 -95.5q72 -80 100.5 -198.5t28.5 -329.5q0 -256 -35 -408q-20 -92 -75.5 -162.5t-133.5 -103.5q-92 -41 -242 -41h-420v641h-108zM383 205h82q139 0 188 57q76 92 76 451q0 274 -50 361t-208 87h-88v-330h168v-190h-168v-436 z" />
<glyph unicode="&#xd1;" horiz-adv-x="1064" d="M80 0v1366h317l328 -930v930h260v-1366h-315l-332 942v-942h-258zM221 1419q14 115 63.5 175.5t127.5 60.5q49 0 176 -47q35 -14 57 -15q47 0 62 70h137q-6 -102 -58.5 -167.5t-128.5 -65.5q-45 0 -168 47q-49 16 -65 16q-49 0 -66 -74h-137z" />
<glyph unicode="&#xd2;" horiz-adv-x="1030" d="M49 692q0 348 80 500q100 201 389 201q291 0 393 -213q70 -147 70 -486q0 -326 -57 -477q-88 -248 -412 -248q-317 0 -408 252q-55 156 -55 471zM248 1667h270l103 -248h-199zM332 694q0 -313 37 -422.5t143 -109.5t145 104.5t39 397.5q0 319 -36.5 425.5t-145.5 106.5 q-106 0 -145 -104q-37 -103 -37 -398z" />
<glyph unicode="&#xd3;" horiz-adv-x="1030" d="M49 692q0 348 80 500q100 201 389 201q291 0 393 -213q70 -147 70 -486q0 -326 -57 -477q-88 -248 -412 -248q-317 0 -408 252q-55 156 -55 471zM332 694q0 -313 37 -422.5t143 -109.5t145 104.5t39 397.5q0 319 -36.5 425.5t-145.5 106.5q-106 0 -145 -104 q-37 -103 -37 -398zM412 1419l104 248h268l-174 -248h-198z" />
<glyph unicode="&#xd4;" horiz-adv-x="1030" d="M49 692q0 348 80 500q100 201 389 201q291 0 393 -213q70 -147 70 -486q0 -326 -57 -477q-88 -248 -412 -248q-317 0 -408 252q-55 156 -55 471zM215 1413l168 262h270l164 -262h-215l-88 141l-90 -141h-209zM332 694q0 -313 37 -422.5t143 -109.5t145 104.5t39 397.5 q0 319 -36.5 425.5t-145.5 106.5q-106 0 -145 -104q-37 -103 -37 -398z" />
<glyph unicode="&#xd5;" horiz-adv-x="1030" d="M49 692q0 348 80 500q100 201 389 201q291 0 393 -213q70 -147 70 -486q0 -326 -57 -477q-88 -248 -412 -248q-317 0 -408 252q-55 156 -55 471zM205 1419q14 115 63 175.5t127 60.5q49 0 176 -47q35 -14 58 -15q47 0 61 70h137q-6 -102 -58 -167.5t-128 -65.5 q-45 0 -168 47q-49 16 -65 16q-49 0 -66 -74h-137zM332 694q0 -313 37 -422.5t143 -109.5t145 104.5t39 397.5q0 319 -36.5 425.5t-145.5 106.5q-106 0 -145 -104q-37 -103 -37 -398z" />
<glyph unicode="&#xd6;" horiz-adv-x="1030" d="M49 692q0 348 80 500q100 201 389 201q291 0 393 -213q70 -147 70 -486q0 -326 -57 -477q-88 -248 -412 -248q-317 0 -408 252q-55 156 -55 471zM217 1419v248h240v-248h-240zM332 694q0 -313 37 -422.5t143 -109.5t145 104.5t39 397.5q0 319 -36.5 425.5t-145.5 106.5 q-106 0 -145 -104q-37 -103 -37 -398zM578 1419v248h239v-248h-239z" />
<glyph unicode="&#xd7;" d="M84 410l262 260l-262 262l133 133l260 -262l262 262l133 -133l-262 -262l262 -260l-133 -134l-262 261l-260 -261z" />
<glyph unicode="&#xd8;" horiz-adv-x="1030" d="M49 688q0 352 80 504q102 201 387 201q129 0 219 -39l62 143l112 -51l-69 -164q78 -76 109.5 -208t31.5 -382q0 -324 -57 -475q-88 -248 -412 -248q-133 0 -219 41l-62 -141l-110 49l69 166q-78 84 -109.5 220t-31.5 384zM332 686q0 -154 8 -254l301 701q-43 63 -127 63 q-106 0 -145 -104q-37 -103 -37 -406zM389 233q41 -72 125 -71q106 0 144 105.5t38 396.5q0 176 -6 270z" />
<glyph unicode="&#xd9;" horiz-adv-x="1011" d="M70 432v51v883h276v-928q0 -127 14 -176q35 -98 146 -98q121 0 149 117q12 39 13 157v928h276v-887q0 -217 -51 -313q-102 -197 -395 -197q-231 0 -338 127q-90 109 -90 336zM238 1667h268l104 -248h-198z" />
<glyph unicode="&#xda;" horiz-adv-x="1011" d="M70 432v51v883h276v-928q0 -127 14 -176q35 -98 146 -98q121 0 149 117q12 39 13 157v928h276v-887q0 -217 -51 -313q-102 -197 -395 -197q-231 0 -338 127q-90 109 -90 336zM401 1419l105 248h268l-174 -248h-199z" />
<glyph unicode="&#xdb;" horiz-adv-x="1011" d="M70 432v51v883h276v-928q0 -127 14 -176q35 -98 146 -98q121 0 149 117q12 39 13 157v928h276v-887q0 -217 -51 -313q-102 -197 -395 -197q-231 0 -338 127q-90 109 -90 336zM205 1413l168 262h270l164 -262h-217l-86 141l-90 -141h-209z" />
<glyph unicode="&#xdc;" horiz-adv-x="1011" d="M70 432v51v883h276v-928q0 -127 14 -176q35 -98 146 -98q121 0 149 117q12 39 13 157v928h276v-887q0 -217 -51 -313q-102 -197 -395 -197q-231 0 -338 127q-90 109 -90 336zM207 1419v248h239v-248h-239zM565 1419v248h240v-248h-240z" />
<glyph unicode="&#xdd;" horiz-adv-x="942" d="M-20 1366h307l190 -545l191 545h295l-355 -829v-537h-274v537zM367 1419l102 248h270l-174 -248h-198z" />
<glyph unicode="&#xde;" horiz-adv-x="976" d="M80 0v1366h272v-215h154q209 0 293 -61q154 -106 153 -347q0 -281 -217 -372q-88 -35 -270 -35h-113v-336h-272zM352 530h94q119 0 172.5 49.5t53.5 161.5q0 111 -49.5 163t-153.5 52h-117v-426z" />
<glyph unicode="&#xdf;" horiz-adv-x="948" d="M74 0v963q0 223 78 309q98 113 321 112q379 0 379 -333q0 -223 -182 -277q121 -20 175 -106t54 -254q0 -195 -78 -310q-84 -119 -284 -118q-55 0 -111 8v186q31 -6 51 -6q82 0 119 63.5t37 200.5q0 143 -58 199q-23 23 -47 29t-88 8h-12v182q90 0 126 38t36 132 q0 178 -129 178q-72 0 -100.5 -46t-28.5 -161v-997h-258z" />
<glyph unicode="&#xe0;" horiz-adv-x="864" d="M25 276q0 154 75 230q57 59 234 102q147 35 179 58.5t32 95.5q0 125 -121 125q-70 0 -100.5 -40t-30.5 -130h-238q0 158 68 233q94 106 309 107q252 0 330 -135q31 -57 31 -224v-454q0 -176 30 -244h-256q-20 61 -20 125q-76 -147 -256 -148q-129 0 -197.5 77t-68.5 222z M147 1407h267l102 -277h-174zM283 303q0 -139 110 -139q78 0 121 61q29 41 29 144v147l-33 -12q-49 -18 -51 -19q-23 -10 -58 -20q-68 -23 -93 -58.5t-25 -103.5z" />
<glyph unicode="&#xe1;" horiz-adv-x="864" d="M25 276q0 154 75 230q57 59 234 102q147 35 179 58.5t32 95.5q0 125 -121 125q-70 0 -100.5 -40t-30.5 -130h-238q0 158 68 233q94 106 309 107q252 0 330 -135q31 -57 31 -224v-454q0 -176 30 -244h-256q-20 61 -20 125q-76 -147 -256 -148q-129 0 -197.5 77t-68.5 222z M283 303q0 -139 110 -139q78 0 121 61q29 41 29 144v147l-33 -12q-49 -18 -51 -19q-23 -10 -58 -20q-68 -23 -93 -58.5t-25 -103.5zM340 1133l102 276h267l-195 -276h-174z" />
<glyph unicode="&#xe2;" horiz-adv-x="864" d="M25 276q0 154 75 230q57 59 234 102q147 35 179 58.5t32 95.5q0 125 -121 125q-70 0 -100.5 -40t-30.5 -130h-238q0 158 68 233q94 106 309 107q252 0 330 -135q31 -57 31 -224v-454q0 -176 30 -244h-256q-20 61 -20 125q-76 -147 -256 -148q-129 0 -197.5 77t-68.5 222z M139 1141l154 274h272l150 -274h-203l-86 162l-90 -162h-197zM283 303q0 -139 110 -139q78 0 121 61q29 41 29 144v147l-33 -12q-49 -18 -51 -19q-23 -10 -58 -20q-68 -23 -93 -58.5t-25 -103.5z" />
<glyph unicode="&#xe3;" horiz-adv-x="864" d="M25 276q0 154 75 230q57 59 234 102q147 35 179 58.5t32 95.5q0 125 -121 125q-70 0 -100.5 -40t-30.5 -130h-238q0 158 68 233q94 106 309 107q252 0 330 -135q31 -57 31 -224v-454q0 -176 30 -244h-256q-20 61 -20 125q-76 -147 -256 -148q-129 0 -197.5 77t-68.5 222z M139 1161q29 240 176 240q35 0 58.5 -7.5t105.5 -45.5q37 -16 53 -17q41 0 54 74h131q-4 -102 -53.5 -168t-120.5 -66q-43 0 -156 50q-45 16 -59 16q-47 0 -58 -76h-131zM283 303q0 -139 110 -139q78 0 121 61q29 41 29 144v147l-33 -12q-49 -18 -51 -19q-23 -10 -58 -20 q-68 -23 -93 -58.5t-25 -103.5z" />
<glyph unicode="&#xe4;" horiz-adv-x="864" d="M25 276q0 154 75 230q57 59 234 102q147 35 179 58.5t32 95.5q0 125 -121 125q-70 0 -100.5 -40t-30.5 -130h-238q0 158 68 233q94 106 309 107q252 0 330 -135q31 -57 31 -224v-454q0 -176 30 -244h-256q-20 61 -20 125q-76 -147 -256 -148q-129 0 -197.5 77t-68.5 222z M160 1167v232h215v-232h-215zM283 303q0 -139 110 -139q78 0 121 61q29 41 29 144v147l-33 -12q-49 -18 -51 -19q-23 -10 -58 -20q-68 -23 -93 -58.5t-25 -103.5zM481 1167v232h215v-232h-215z" />
<glyph unicode="&#xe5;" horiz-adv-x="864" d="M25 276q0 154 75 230q57 59 234 102q147 35 179 58.5t32 95.5q0 125 -121 125q-70 0 -100.5 -40t-30.5 -130h-238q0 158 68 233q94 106 309 107q252 0 330 -135q31 -57 31 -224v-454q0 -176 30 -244h-256q-20 61 -20 125q-76 -147 -256 -148q-129 0 -197.5 77t-68.5 222z M215 1343q0 88 63.5 149.5t153.5 61.5q84 0 146.5 -62t62.5 -150.5t-62.5 -151t-150.5 -62.5t-150.5 62.5t-62.5 152.5zM283 303q0 -139 110 -139q78 0 121 61q29 41 29 144v147l-33 -12q-49 -18 -51 -19q-23 -10 -58 -20q-68 -23 -93 -58.5t-25 -103.5zM324 1341 q0 -45 30.5 -76.5t73.5 -31.5t73.5 31.5t30.5 76.5t-30.5 77t-71.5 32q-45 0 -75.5 -32t-30.5 -77z" />
<glyph unicode="&#xe6;" horiz-adv-x="1345" d="M27 276q0 188 108 256q43 27 87 41.5t212 55.5q61 14 82 39.5t21 91.5q0 127 -117 127q-66 0 -95.5 -40t-29.5 -130h-238q-2 174 86 257t271 83q201 0 268 -125q74 123 250 123q193 0 278.5 -123t85.5 -400v-55h-514q0 -145 15 -211q25 -121 118 -121q125 0 129 205h242 q-4 -184 -99 -279.5t-274 -95.5q-246 0 -309 183q-68 -180 -287 -181q-290 0 -290 299zM285 301q0 -139 108 -139q68 0 105 46t37 130v172q-45 -20 -60 -25l-43 -14l-35 -10q-61 -20 -86.5 -56t-25.5 -104zM782 633h260l-2 14l-2 55q-6 182 -123 183q-70 0 -101.5 -59.5 t-31.5 -192.5z" />
<glyph unicode="&#xe7;" horiz-adv-x="872" d="M49 502q0 295 95.5 425t312.5 130q252 0 340 -174q37 -76 37 -215h-250q0 113 -29 161t-96 48q-82 0 -113 -81t-31 -290q0 -199 31 -275.5t111 -76.5q72 0 102.5 57t30.5 188h244q4 -205 -86.5 -314.5t-266.5 -109.5l-53 -90q27 8 55 9q76 0 123 -41t47 -107 q0 -78 -64.5 -127t-170.5 -49q-100 0 -199 37l35 90q80 -27 137 -27q41 0 66.5 19.5t25.5 50.5q0 29 -24.5 47t-63.5 18q-23 0 -59 -12l-43 35l86 147q-170 12 -250 139.5t-80 387.5z" />
<glyph unicode="&#xe8;" horiz-adv-x="886" d="M49 516q0 289 94.5 415t311.5 126q207 0 296 -121t89 -401v-58h-525q0 -193 29 -262.5t111 -69.5q127 0 133 205h241q0 -106 -45 -207q-84 -170 -335 -170q-213 0 -306.5 126t-93.5 417zM176 1407h266l103 -277h-174zM315 635h269q-2 141 -30 195.5t-99.5 54.5 t-105.5 -59.5t-34 -190.5z" />
<glyph unicode="&#xe9;" horiz-adv-x="886" d="M49 516q0 289 94.5 415t311.5 126q207 0 296 -121t89 -401v-58h-525q0 -193 29 -262.5t111 -69.5q127 0 133 205h241q0 -106 -45 -207q-84 -170 -335 -170q-213 0 -306.5 126t-93.5 417zM315 635h269q-2 141 -30 195.5t-99.5 54.5t-105.5 -59.5t-34 -190.5zM381 1133 l104 276h265l-195 -276h-174z" />
<glyph unicode="&#xea;" horiz-adv-x="886" d="M49 516q0 289 94.5 415t311.5 126q207 0 296 -121t89 -401v-58h-525q0 -193 29 -262.5t111 -69.5q127 0 133 205h241q0 -106 -45 -207q-84 -170 -335 -170q-213 0 -306.5 126t-93.5 417zM168 1141l154 274h272l149 -274h-202l-86 162l-90 -162h-197zM315 635h269 q-2 141 -30 195.5t-99.5 54.5t-105.5 -59.5t-34 -190.5z" />
<glyph unicode="&#xeb;" horiz-adv-x="886" d="M49 516q0 289 94.5 415t311.5 126q207 0 296 -121t89 -401v-58h-525q0 -193 29 -262.5t111 -69.5q127 0 133 205h241q0 -106 -45 -207q-84 -170 -335 -170q-213 0 -306.5 126t-93.5 417zM174 1167v232h215v-232h-215zM315 635h269q-2 141 -30 195.5t-99.5 54.5 t-105.5 -59.5t-34 -190.5zM498 1167v232h215v-232h-215z" />
<glyph unicode="&#xec;" horiz-adv-x="409" d="M-61 1407h266l102 -277h-176zM74 0v1030h264v-1030h-264z" />
<glyph unicode="&#xed;" horiz-adv-x="409" d="M74 0v1030h264v-1030h-264zM117 1133l104 276h264l-194 -276h-174z" />
<glyph unicode="&#xee;" horiz-adv-x="409" d="M-63 1141l153 274h232l149 -274h-203l-61 131l-74 -131h-196zM72 0v1030h264v-1030h-264z" />
<glyph unicode="&#xef;" horiz-adv-x="409" d="M-43 1167v232h207v-232h-207zM72 0v1030h264v-1030h-264zM248 1167v232h207v-232h-207z" />
<glyph unicode="&#xf0;" horiz-adv-x="909" d="M49 518q0 274 88 402q96 135 293 135q45 0 80 -17l-43 127l-109 -32l-28 94l108 35l-37 112l144 45l53 -114l119 38l28 -94l-104 -30l135 -281q84 -174 84 -408q0 -297 -94 -423.5t-313 -126.5q-221 0 -312.5 121.5t-91.5 416.5zM315 524q0 -207 30 -285.5t107.5 -78.5 t109.5 81t32 285q0 199 -28.5 273.5t-106.5 74.5q-80 0 -112 -76.5t-32 -273.5z" />
<glyph unicode="&#xf1;" horiz-adv-x="917" d="M74 0v1030h252v-117q63 82 120.5 114t143.5 32q182 0 244 -148q20 -53 20 -198v-713h-266v653q0 102 -10 133q-23 63 -101 64q-139 0 -139 -172v-678h-264zM174 1161q29 240 176 240q35 0 58.5 -7.5t105.5 -45.5q37 -16 53 -17q41 0 54 74h131q-4 -102 -53.5 -168 t-120.5 -66q-43 0 -156 50q-45 16 -60 16q-47 0 -57 -76h-131z" />
<glyph unicode="&#xf2;" horiz-adv-x="911" d="M49 520q0 283 98.5 410t315.5 127t308 -123t91 -414q0 -293 -97 -420t-321 -127q-215 0 -305 125t-90 422zM174 1407h266l105 -277h-176zM313 514q0 -205 31 -283.5t111 -78.5t111.5 81.5t31.5 286.5t-29.5 281t-109.5 76q-82 0 -114 -79t-32 -284z" />
<glyph unicode="&#xf3;" horiz-adv-x="911" d="M49 520q0 283 98.5 410t315.5 127t308 -123t91 -414q0 -293 -97 -420t-321 -127q-215 0 -305 125t-90 422zM313 514q0 -205 31 -283.5t111 -78.5t111.5 81.5t31.5 286.5t-29.5 281t-109.5 76q-82 0 -114 -79t-32 -284zM367 1133l102 276h266l-194 -276h-174z" />
<glyph unicode="&#xf4;" horiz-adv-x="911" d="M49 520q0 283 98.5 410t315.5 127t308 -123t91 -414q0 -293 -97 -420t-321 -127q-215 0 -305 125t-90 422zM168 1141l154 274h270l151 -274h-204l-86 162l-91 -162h-194zM313 514q0 -205 31 -283.5t111 -78.5t111.5 81.5t31.5 286.5t-29.5 281t-109.5 76q-82 0 -114 -79 t-32 -284z" />
<glyph unicode="&#xf5;" horiz-adv-x="911" d="M49 520q0 283 98.5 410t315.5 127t308 -123t91 -414q0 -293 -97 -420t-321 -127q-215 0 -305 125t-90 422zM166 1161q31 240 176 240q35 0 58.5 -7.5t105.5 -45.5q37 -16 53 -17q41 0 53 74h131q-2 -100 -52 -167t-122 -67q-41 0 -155 50q-45 16 -60 16q-45 0 -57 -76 h-131zM313 514q0 -205 31 -283.5t111 -78.5t111.5 81.5t31.5 286.5t-29.5 281t-109.5 76q-82 0 -114 -79t-32 -284z" />
<glyph unicode="&#xf6;" horiz-adv-x="911" d="M49 520q0 283 98.5 410t315.5 127t308 -123t91 -414q0 -293 -97 -420t-321 -127q-215 0 -305 125t-90 422zM186 1167v232h215v-232h-215zM313 514q0 -205 31 -283.5t111 -78.5t111.5 81.5t31.5 286.5t-29.5 281t-109.5 76q-82 0 -114 -79t-32 -284zM508 1167v232h215 v-232h-215z" />
<glyph unicode="&#xf7;" d="M55 575v189h844v-189h-844zM346 332q0 53 39 91t92 38q51 0 89 -38t38 -91t-38 -91t-91 -38t-91 38t-38 91zM346 1010q0 53 38 90t93 37q51 0 89 -38t38 -91.5t-38 -91t-91 -37.5t-91 38t-38 93z" />
<glyph unicode="&#xf8;" horiz-adv-x="911" d="M49 514q0 297 101 418q100 125 309 125q113 0 196 -33l70 135l106 -55l-77 -150q109 -123 108 -434q0 -291 -96 -419t-315 -128q-121 0 -195 33l-72 -139l-104 55l80 154q-59 70 -85 170t-26 268zM311 520q0 -94 4 -153l242 462q-33 49 -98 50q-82 0 -115 -80t-33 -279z M356 201q39 -53 99 -54q80 0 112.5 82t32.5 283q0 102 -4 150z" />
<glyph unicode="&#xf9;" horiz-adv-x="917" d="M66 309v721h266v-668q0 -104 23.5 -143t84.5 -39q92 0 127 82q12 33 13 109v659h264v-1030h-252v121q-59 -82 -116.5 -115t-143.5 -33q-186 0 -244 154q-22 67 -22 182zM174 1407h266l103 -277h-176z" />
<glyph unicode="&#xfa;" horiz-adv-x="917" d="M66 309v721h266v-668q0 -104 23.5 -143t84.5 -39q92 0 127 82q12 33 13 109v659h264v-1030h-252v121q-59 -82 -116.5 -115t-143.5 -33q-186 0 -244 154q-22 67 -22 182zM365 1133l104 276h266l-194 -276h-176z" />
<glyph unicode="&#xfb;" horiz-adv-x="917" d="M66 309v721h266v-668q0 -104 23.5 -143t84.5 -39q92 0 127 82q12 33 13 109v659h264v-1030h-252v121q-59 -82 -116.5 -115t-143.5 -33q-186 0 -244 154q-22 67 -22 182zM166 1141l153 274h273l149 -274h-202l-86 162l-91 -162h-196z" />
<glyph unicode="&#xfc;" horiz-adv-x="917" d="M66 309v721h266v-668q0 -104 23.5 -143t84.5 -39q92 0 127 82q12 33 13 109v659h264v-1030h-252v121q-59 -82 -116.5 -115t-143.5 -33q-186 0 -244 154q-22 67 -22 182zM184 1167v232h215v-232h-215zM508 1167v232h215v-232h-215z" />
<glyph unicode="&#xfd;" horiz-adv-x="800" d="M-16 1030h280l152 -743l137 743h268l-258 -985q-63 -244 -133 -316.5t-242 -72.5q-49 0 -125 6v191q41 -4 74 -5q63 0 95 32t49 110zM313 1133l103 276h266l-195 -276h-174z" />
<glyph unicode="&#xfe;" horiz-adv-x="925" d="M74 -338v1704h252v-465q45 86 98 120t141 34q162 0 237 -124t75 -396q0 -283 -68 -410q-82 -150 -252 -150q-78 0 -123 27t-96 102v-442h-264zM330 532q0 -207 28 -276q33 -80 111 -80t109.5 76t31.5 260q0 193 -29.5 267.5t-105.5 74.5q-88 0 -123 -98q-22 -62 -22 -224 z" />
<glyph unicode="&#xff;" horiz-adv-x="800" d="M-16 1030h280l152 -743l137 743h268l-258 -985q-63 -244 -133 -316.5t-242 -72.5q-49 0 -125 6v191q41 -4 74 -5q63 0 95 32t49 110zM133 1167v232h215v-232h-215zM455 1167v232h215v-232h-215z" />
<glyph unicode="&#x152;" horiz-adv-x="1447" d="M49 711q0 332 76 483q102 201 342 201q90 0 142.5 -22.5t107.5 -86.5v80h696v-223h-463v-328h436v-219h-436v-373h480v-223h-713v78q-80 -106 -250 -107q-293 0 -375 281q-43 158 -43 459zM330 709q0 -307 28 -420q16 -59 58.5 -93t101.5 -34q51 0 90 24.5t54 63.5 q29 84 28 416v108q0 242 -18 311q-31 115 -152 115q-115 0 -155 -108q-35 -98 -35 -383z" />
<glyph unicode="&#x153;" horiz-adv-x="1400" d="M49 504q0 307 101 432q100 123 299 123q201 0 274 -144q78 141 268 142q287 0 340 -275q20 -102 21 -305h-514q0 -180 30.5 -256t104.5 -76q125 0 129 205h241q-18 -377 -366 -377q-199 0 -266 150q-72 -150 -285 -150q-197 0 -287 127.5t-90 403.5zM313 524 q0 -209 31 -290.5t108.5 -81.5t109.5 82.5t32 289.5q0 203 -28.5 279t-106.5 76q-80 0 -113 -80t-33 -275zM838 633h260q0 133 -30 192.5t-95 59.5q-135 0 -135 -252z" />
<glyph unicode="&#x178;" horiz-adv-x="942" d="M-20 1366h307l190 -545l191 545h295l-355 -829v-537h-274v537zM170 1419v248h240v-248h-240zM530 1419v248h240v-248h-240z" />
<glyph unicode="&#x2c6;" horiz-adv-x="1024" d="M223 1141l154 274h272l150 -274h-203l-86 162l-90 -162h-197z" />
<glyph unicode="&#x2dc;" horiz-adv-x="1024" d="M223 1161q31 240 176 240q35 0 58.5 -7.5t105.5 -45.5q37 -16 53 -17q41 0 54 74h133q-4 -100 -53.5 -167t-120.5 -67q-43 0 -158 50q-45 16 -59 16q-45 0 -58 -76h-131z" />
<glyph unicode="&#x2000;" horiz-adv-x="919" />
<glyph unicode="&#x2001;" horiz-adv-x="1839" />
<glyph unicode="&#x2002;" horiz-adv-x="919" />
<glyph unicode="&#x2003;" horiz-adv-x="1839" />
<glyph unicode="&#x2004;" horiz-adv-x="613" />
<glyph unicode="&#x2005;" horiz-adv-x="459" />
<glyph unicode="&#x2006;" horiz-adv-x="306" />
<glyph unicode="&#x2007;" horiz-adv-x="306" />
<glyph unicode="&#x2008;" horiz-adv-x="229" />
<glyph unicode="&#x2009;" horiz-adv-x="367" />
<glyph unicode="&#x200a;" horiz-adv-x="102" />
<glyph unicode="&#x2010;" horiz-adv-x="542" d="M0 438v228h543v-228h-543z" />
<glyph unicode="&#x2011;" horiz-adv-x="542" d="M0 438v228h543v-228h-543z" />
<glyph unicode="&#x2012;" horiz-adv-x="542" d="M0 438v228h543v-228h-543z" />
<glyph unicode="&#x2013;" horiz-adv-x="1247" d="M82 444v218h1083v-218h-1083z" />
<glyph unicode="&#x2014;" horiz-adv-x="1269" d="M0 444v218h1270v-218h-1270z" />
<glyph unicode="&#x2018;" horiz-adv-x="413" d="M76 770v203q0 219 55 301q66 100 205 106v-129q-61 -14 -83 -53t-22 -135h105v-293h-260z" />
<glyph unicode="&#x2019;" horiz-adv-x="411" d="M76 754v131q59 12 81.5 52t22.5 134h-104v295h258v-186q0 -135 -9.5 -195.5t-37.5 -112.5q-29 -55 -77 -81.5t-134 -36.5z" />
<glyph unicode="&#x201a;" horiz-adv-x="411" d="M76 0v293h260v-205q0 -213 -57 -301q-61 -94 -203 -106v131q59 14 81.5 54t22.5 134h-104z" />
<glyph unicode="&#x201c;" horiz-adv-x="747" d="M76 766v229q0 201 56 284t204 101v-131q-59 -10 -82 -51t-23 -137h105v-295h-260zM412 766v235q0 193 57 277q33 47 73 67.5t128 34.5v-131q-61 -16 -82 -53t-23 -135h105v-295h-258z" />
<glyph unicode="&#x201d;" horiz-adv-x="747" d="M76 754v131q59 14 81.5 53t22.5 133h-104v295h260v-223q0 -203 -57.5 -289t-202.5 -100zM410 752v133q59 10 81.5 51t22.5 135h-104v295h260v-221q0 -197 -54 -281q-61 -98 -206 -112z" />
<glyph unicode="&#x201e;" horiz-adv-x="747" d="M76 0v295h258v-203q0 -219 -54.5 -305t-203.5 -106v131q59 14 81.5 55t22.5 133h-104zM410 0v295h260v-201q0 -201 -43 -284q-53 -106 -217 -129v131q61 14 82.5 53t23.5 135h-106z" />
<glyph unicode="&#x2022;" horiz-adv-x="1366" d="M401 692q0 119 84 202t205 83q113 0 196 -84t83 -199q0 -119 -83 -201.5t-200 -82.5t-201 82.5t-84 199.5z" />
<glyph unicode="&#x2026;" horiz-adv-x="1163" d="M63 0v301h261v-301h-261zM451 0v301h260v-301h-260zM838 0v301h260v-301h-260z" />
<glyph unicode="&#x202f;" horiz-adv-x="367" />
<glyph unicode="&#x2039;" horiz-adv-x="356" d="M33 410v256l272 233v-227l-143 -133l143 -136v-231z" />
<glyph unicode="&#x203a;" horiz-adv-x="356" d="M51 172v225l144 135l-144 134v233l273 -237v-256z" />
<glyph unicode="&#x205f;" horiz-adv-x="459" />
<glyph unicode="&#x20ac;" horiz-adv-x="983" d="M8 508l31 131h86v6v27v61h-117l31 131h90q14 248 82 357q102 172 342 172q309 0 367 -209q18 -61 18 -166h-244q-2 98 -31.5 138t-99.5 40q-80 0 -112.5 -70.5t-40.5 -261.5h270l-31 -131h-241v-55v-33v-6h221l-31 -131h-188q8 -195 39.5 -267.5t109.5 -72.5 q66 0 94.5 56.5t30.5 187.5h246q-2 -129 -22.5 -200t-67.5 -128q-92 -111 -293 -111q-213 0 -310.5 124t-109.5 411h-119z" />
<glyph unicode="&#x2122;" horiz-adv-x="1449" d="M6 1223v143h529v-143h-177v-635h-174v635h-178zM618 588v778h250l115 -514l111 514h252v-778h-166v579l-131 -579h-136l-131 579v-579h-164z" />
<glyph unicode="&#xe000;" horiz-adv-x="1030" d="M0 0v1030h1030v-1030h-1030z" />
<glyph unicode="&#xfb01;" horiz-adv-x="925" d="M-27 848v182h136v57q0 119 18 172.5t72 86.5q70 41 215 40q66 0 112 -2v-186h-32q-88 0 -105 -24q-16 -20 -16 -144h153v-182h-153v-848h-264v848h-136zM590 0v1030h264v-1030h-264zM590 1143v223h264v-223h-264z" />
<glyph unicode="&#xfb02;" horiz-adv-x="925" d="M-27 848v182h136v57q0 119 18 172.5t72 86.5q70 41 215 40q66 0 112 -2v-186h-32q-88 0 -105 -24q-16 -20 -16 -144h153v-182h-153v-848h-264v848h-136zM590 0v1366h262v-1366h-262z" />
<glyph unicode="&#xfb03;" horiz-adv-x="1417" d="M-27 848v182h136v57q0 119 18 172.5t72 86.5q70 41 215 40q66 0 112 -2v-186h-32q-88 0 -105 -24q-16 -20 -16 -144h153v-182h-153v-848h-264v848h-136zM477 848v182h136v57q0 119 18 172.5t72 86.5q70 41 215 40q66 0 112 -2v-186h-32q-88 0 -105 -24q-16 -20 -16 -144 h153v-182h-153v-848h-264v848h-136zM1082 0v1030h264v-1030h-264zM1082 1143v223h264v-223h-264z" />
<glyph unicode="&#xfb04;" horiz-adv-x="1415" d="M-27 848v182h136v57q0 119 18 172.5t72 86.5q70 41 215 40q66 0 112 -2v-186h-32q-88 0 -105 -24q-16 -20 -16 -144h153v-182h-153v-848h-264v848h-136zM477 848v182h136v57q0 119 18 172.5t72 86.5q70 41 215 40q66 0 112 -2v-186h-32q-88 0 -105 -24q-16 -20 -16 -144 h153v-182h-153v-848h-264v848h-136zM1082 0v1366h262v-1366h-262z" />
</font>
</defs>
</svg>
